Coordinates
version=1
nRows=13
nColumns=40
inDegrees=yes

Units are S.I. units (second, meters, Newtons, ...)
If the header above contains a line with 'inDegrees', this indicates whether rotational values are in degrees (yes) or radians (no).

endheader
time	pelvis_tilt	pelvis_list	pelvis_rotation	pelvis_tx	pelvis_ty	pelvis_tz	hip_flexion_r	hip_adduction_r	hip_rotation_r	knee_angle_r	knee_angle_r_beta	ankle_angle_r	subtalar_angle_r	mtp_angle_r	hip_flexion_l	hip_adduction_l	hip_rotation_l	knee_angle_l	knee_angle_l_beta	ankle_angle_l	subtalar_angle_l	mtp_angle_l	lumbar_extension	lumbar_bending	lumbar_rotation	arm_flex_r	arm_add_r	arm_rot_r	elbow_flex_r	pro_sup_r	wrist_flex_r	wrist_dev_r	arm_flex_l	arm_add_l	arm_rot_l	elbow_flex_l	pro_sup_l	wrist_flex_l	wrist_dev_l
      7.45000000	     28.15873138	      5.66984045	   -175.07450652	      0.35690150	      0.67437200	     -0.94083054	     63.60026422	    -42.98292476	    -16.70186408	     39.88714385	      0.69616199	    -11.21418686	      0.00000000	      0.00000000	     75.15445502	    -39.87870597	     -1.38952062	     35.92709178	      0.62704604	    -15.41439396	      0.00000000	      0.00000000	    -27.18584117	      1.21795649	      0.99877547	     48.46399690	    -17.67435523	     85.91953262	     19.54215631	     74.74023518	      0.00000000	      0.00000000	     49.71390752	    -14.54427411	     75.93707126	     14.01214072	     70.58782430	      0.00000000	      0.00000000
      7.45500000	     28.05775930	      5.68879401	   -175.04800742	      0.35643613	      0.67521234	     -0.94067172	     63.26354185	    -42.95311996	    -16.91026338	     39.69411247	      0.69279296	    -11.25754352	      0.00000000	      0.00000000	     74.90279091	    -39.84756753	     -1.43583799	     35.77386266	      0.62437169	    -15.40082064	      0.00000000	      0.00000000	    -27.14159030	      1.30166099	      0.94771118	     48.37875577	    -17.69972490	     85.94889521	     19.64274571	     74.34724520	      0.00000000	      0.00000000	     49.47881808	    -14.43160450	     75.25656198	     13.85821566	     70.00259436	      0.00000000	      0.00000000
      7.46000000	     27.96217233	      5.67529285	   -175.06323737	      0.35592411	      0.67602357	     -0.94061980	     62.97262007	    -42.90048358	    -17.06300501	     39.50423234	      0.68947892	    -11.30490390	      0.00000000	      0.00000000	     74.61589028	    -39.86590077	     -1.56743358	     35.62854631	      0.62183544	    -15.44094148	      0.00000000	      0.00000000	    -27.09172228	      1.31569601	      0.92954452	     48.31656562	    -17.70059898	     86.07147050	     19.66485691	     74.34726669	      0.00000000	      0.00000000	     49.34124102	    -14.48161963	     75.18200967	     13.93758047	     69.86022627	      0.00000000	      0.00000000
      7.46500000	     28.00558853	      5.49693134	   -175.30532745	      0.35560155	      0.67658760	     -0.94100183	     63.12279201	    -42.66745228	    -16.62473923	     39.29808766	      0.68588102	    -11.35106927	      0.00000000	      0.00000000	     74.26573156	    -40.03155869	     -1.97096638	     35.49593571	      0.61952095	    -15.38518486	      0.00000000	      0.00000000	    -26.89905527	      1.01783988	      1.04778988	     48.15371866	    -17.72348612	     85.71886760	     19.72675769	     75.19795902	      0.00000000	      0.00000000	     49.43327214	    -14.69952168	     76.37974394	     14.12791277	     71.01668401	      0.00000000	      0.00000000
      7.47000000	     27.71653990	      5.67142490	   -175.08992553	      0.35491831	      0.67764426	     -0.94052631	     62.33478479	    -42.76958900	    -17.34894694	     39.13980473	      0.68311846	    -11.35696717	      0.00000000	      0.00000000	     74.02368289	    -39.90514288	     -1.76434685	     35.34948736	      0.61696494	    -15.42618752	      0.00000000	      0.00000000	    -27.03785122	      1.36405135	      0.88344724	     48.14308027	    -17.65174555	     85.97663649	     19.62456573	     74.88164231	      0.00000000	      0.00000000	     49.17317029	    -14.68605741	     75.58969026	     14.12553801	     70.76178105	      0.00000000	      0.00000000
      7.47500000	     27.51059983	      5.68354988	   -175.05438732	      0.35431732	      0.67859764	     -0.94033008	     61.85855738	    -42.73462490	    -17.58181863	     38.91996678	      0.67928157	    -11.35092878	      0.00000000	      0.00000000	     73.64641803	    -39.88527654	     -1.83841383	     35.20344570	      0.61441604	    -15.29503896	      0.00000000	      0.00000000	    -27.10194654	      1.42154135	      0.88746603	     47.98718275	    -17.71989878	     85.74234364	     19.71895545	     74.43539022	      0.00000000	      0.00000000	     48.97748055	    -14.39259199	     74.86156040	     13.74097845	     70.09391199	      0.00000000	      0.00000000
      7.48000000	     27.33125382	      5.71660853	   -175.08620560	      0.35369574	      0.67945908	     -0.94032026	     61.46917633	    -42.64262583	    -17.78954428	     38.76953827	      0.67665609	    -11.43666132	      0.00000000	      0.00000000	     73.35411405	    -39.97248224	     -1.93949301	     35.11064174	      0.61279630	    -15.39321856	      0.00000000	      0.00000000	    -27.12710148	      1.47668831	      0.86185256	     47.98202356	    -17.70122951	     86.00405089	     19.77712879	     74.43237422	      0.00000000	      0.00000000	     48.82140444	    -14.57966887	     74.75539250	     13.99023948	     69.99121164	      0.00000000	      0.00000000
      7.48500000	     27.24913034	      5.74816132	   -175.06943225	      0.35324185	      0.68018984	     -0.94016803	     61.15284300	    -42.58156227	    -17.95596735	     38.55887916	      0.67297940	    -11.53640176	      0.00000000	      0.00000000	     73.12458575	    -39.95212026	     -1.96299089	     34.93861760	      0.60979391	    -15.43897754	      0.00000000	      0.00000000	    -27.04175766	      1.54812963	      0.86391452	     47.88512251	    -17.75531533	     86.10297245	     19.85239278	     73.97723523	      0.00000000	      0.00000000	     48.62323122	    -14.48810225	     74.29854426	     13.94334430	     69.30132957	      0.00000000	      0.00000000
      7.49000000	     27.13302724	      5.80555145	   -175.06478553	      0.35277987	      0.68086593	     -0.94005172	     60.77854375	    -42.49930350	    -18.19738463	     38.37456507	      0.66976251	    -11.44867142	      0.00000000	      0.00000000	     72.94661627	    -39.97458002	     -1.94095693	     34.86284024	      0.60847135	    -15.39425359	      0.00000000	      0.00000000	    -26.98042262	      1.63521200	      0.83097034	     47.77587183	    -17.67841329	     85.82581647	     19.70473712	     75.41628828	      0.00000000	      0.00000000	     48.74485491	    -14.77562285	     75.65767737	     14.20090562	     71.50451019	      0.00000000	      0.00000000
      7.49500000	     26.79674561	      5.84227634	   -175.03712089	      0.35199200	      0.68206461	     -0.93992922	     60.13027072	    -42.44012873	    -18.53434603	     38.18400552	      0.66643662	    -11.45754657	      0.00000000	      0.00000000	     72.45314799	    -40.03318191	     -2.07619631	     34.72230227	      0.60601850	    -15.38574948	      0.00000000	      0.00000000	    -27.18189143	      1.72246092	      0.81077935	     47.73593756	    -17.64151455	     85.85265683	     19.67116925	     75.75405715	      0.00000000	      0.00000000	     48.64526675	    -14.80886809	     75.31681889	     14.29137638	     71.77246046	      0.00000000	      0.00000000
      7.50000000	     26.65281076	      5.85993784	   -175.06362908	      0.35146083	      0.68291983	     -0.93986676	     59.77554472	    -42.32915434	    -18.65242010	     37.97756991	      0.66283364	    -11.49417972	      0.00000000	      0.00000000	     72.13984870	    -40.07601643	     -2.17518539	     34.57250728	      0.60340408	    -15.38128857	      0.00000000	      0.00000000	    -27.16976211	      1.76641299	      0.84445233	     47.65263348	    -17.65837509	     85.95060711	     19.67322192	     75.27268027	      0.00000000	      0.00000000	     48.45411168	    -14.71798855	     74.73990012	     14.20332115	     71.36608906	      0.00000000	      0.00000000
      7.50500000	     26.62858979	      5.78803984	   -175.16138598	      0.35098697	      0.68352248	     -0.93996986	     59.70251622	    -42.21207877	    -18.52986039	     37.80935898	      0.65989780	    -11.55668599	      0.00000000	      0.00000000	     71.86421513	    -40.15073121	     -2.42440313	     34.46093693	      0.60145681	    -15.36032895	      0.00000000	      0.00000000	    -27.01080799	      1.65170470	      0.85908202	     47.49928972	    -17.64954345	     85.86325530	     19.71365428	     75.32112918	      0.00000000	      0.00000000	     48.41798275	    -14.82576927	     75.38721477	     14.27915300	     71.73100426	      0.00000000	      0.00000000
      7.51000000	     26.44209941	      5.72853512	   -175.18986451	      0.35039983	      0.68449854	     -0.93998536	     59.37360567	    -42.13714125	    -18.53580914	     37.61410874	      0.65649004	    -11.67818927	      0.00000000	      0.00000000	     71.40881589	    -40.18688950	     -2.68148171	     34.27922357	      0.59828532	    -15.48452483	      0.00000000	      0.00000000	    -27.06263668	      1.61592754	      0.78893707	     47.48068373	    -17.61731972	     86.09086731	     19.87229258	     74.20838228	      0.00000000	      0.00000000	     47.98227077	    -14.78859374	     73.98226515	     14.19938089	     70.24828670	      0.00000000	      0.00000000
